<?xml version="1.0" encoding="utf-8"?>
<svg version="1.1" baseProfile="basic" id="Layer_1" xmlns="http://www.w3.org/2000/svg" x="0px" y="0px" viewBox="0 0 528 228.2" xml:space="preserve">
  <g>
    <g/>
    <g>
      <g>
        <path fill="#F2F2F2" stroke="#000000" stroke-miterlimit="10" d="M460.3,77.3h-30.6h-54.7h-30.6c-13.2,0-22.9,12.5-19.5,25.3 l10.8,41.1c2.4,9,10.5,15.2,19.8,15.2h19.6h54.7h19.6c9.3,0,17.4-6.3,19.8-15.2l10.8-41.1C483.2,89.9,473.6,77.3,460.3,77.3 L460.3,77.3z"/>
        <path fill="#595959" stroke="#000000" stroke-miterlimit="10" d="M472.4,88.2c-2.9-3.8-7.3-5.9-12-5.9h-30.6h-54.7h-30.6 c-4.8,0-9.1,2.2-12,5.9s-3.9,8.6-2.7,13.2l10.8,41.1c1.8,6.8,7.9,11.5,14.9,11.5h19.6h54.7h19.6c7,0,13.1-4.7,14.9-11.5 l10.8-41.1C476.2,96.8,475.3,92,472.4,88.2z M342.4,102.8c0-5.5,4.4-9.9,9.9-9.9c5.5,0,9.9,4.4,9.9,9.9c0,5.5-4.4,9.9-9.9,9.9 C346.9,112.8,342.4,108.3,342.4,102.8z M364.8,143.6c-5.5,0-9.9-4.4-9.9-9.9c0-5.5,4.4-9.9,9.9-9.9s9.9,4.4,9.9,9.9 C374.7,139.2,370.3,143.6,364.8,143.6z M367.5,102.8c0-5.5,4.4-9.9,9.9-9.9c5.5,0,9.9,4.4,9.9,9.9c0,5.5-4.4,9.9-9.9,9.9 C371.9,112.8,367.5,108.3,367.5,102.8z M389.9,143.6c-5.5,0-9.9-4.4-9.9-9.9c0-5.5,4.4-9.9,9.9-9.9s9.9,4.4,9.9,9.9 C399.8,139.2,395.3,143.6,389.9,143.6z M392.6,102.8c0-5.5,4.4-9.9,9.9-9.9s9.9,4.4,9.9,9.9c0,5.5-4.4,9.9-9.9,9.9 S392.6,108.3,392.6,102.8z M414.9,143.6c-5.5,0-9.9-4.4-9.9-9.9c0-5.5,4.4-9.9,9.9-9.9c5.5,0,9.9,4.4,9.9,9.9 C424.8,139.2,420.4,143.6,414.9,143.6z M427.5,112.8c-5.5,0-9.9-4.4-9.9-9.9c0-5.5,4.4-9.9,9.9-9.9s9.9,4.4,9.9,9.9 C437.5,108.3,433,112.8,427.5,112.8z M440,143.6c-5.5,0-9.9-4.4-9.9-9.9c0-5.5,4.4-9.9,9.9-9.9c5.5,0,9.9,4.4,9.9,9.9 C449.9,139.2,445.5,143.6,440,143.6z M452.6,112.8c-5.5,0-9.9-4.4-9.9-9.9c0-5.5,4.4-9.9,9.9-9.9c5.5,0,9.9,4.4,9.9,9.9 C462.5,108.3,458.1,112.8,452.6,112.8z"/>
        <g>
          <text transform="matrix(1 0 0 1 361.9548 137.5817)" font-family="'HelveticaNeue-Light'" font-size="10px" style="white-space: pre;">6</text>
          <text transform="matrix(1 0 0 1 387.0536 137.5817)" font-family="'HelveticaNeue-Light'" font-size="10px" style="white-space: pre;">7</text>
          <text transform="matrix(1 0 0 1 412.1527 137.5817)" font-family="'HelveticaNeue-Light'" font-size="10px" style="white-space: pre;">8</text>
          <text transform="matrix(1 0 0 1 437.2518 137.5817)" font-family="'HelveticaNeue-Light'" font-size="10px" style="white-space: pre;">9</text>
          <text transform="matrix(1 0 0 1 349.4054 106.349)" font-family="'HelveticaNeue-Light'" font-size="10px" style="white-space: pre;">1</text>
          <text transform="matrix(1 0 0 1 374.5042 106.349)" font-family="'HelveticaNeue-Light'" font-size="10px" style="white-space: pre;">2</text>
          <text transform="matrix(1 0 0 1 399.6034 106.349)" font-family="'HelveticaNeue-Light'" font-size="10px" style="white-space: pre;">3</text>
          <text transform="matrix(1 0 0 1 424.7024 106.349)" font-family="'HelveticaNeue-Light'" font-size="10px" style="white-space: pre;">4</text>
          <text transform="matrix(1 0 0 1 449.8015 106.349)" font-family="'HelveticaNeue-Light'" font-size="10px" style="white-space: pre;">5</text>
        </g>
        <g>
          <line fill="none" stroke="#000000" stroke-miterlimit="10" x1="364.8" y1="173.2" x2="364.8" y2="143.6"/>
          <line fill="none" stroke="#000000" stroke-miterlimit="10" x1="389.9" y1="173.2" x2="389.9" y2="143.6"/>
          <line fill="none" stroke="#000000" stroke-miterlimit="10" x1="414.9" y1="173.2" x2="414.9" y2="143.6"/>
          <line fill="none" stroke="#000000" stroke-miterlimit="10" x1="440" y1="173.2" x2="440" y2="143.6"/>
          <line fill="none" stroke="#000000" stroke-miterlimit="10" x1="352.2" y1="92.9" x2="352.2" y2="63.3"/>
          <line fill="none" stroke="#000000" stroke-miterlimit="10" x1="377.3" y1="92.9" x2="377.3" y2="63.3"/>
          <line fill="none" stroke="#000000" stroke-miterlimit="10" x1="402.3" y1="92.9" x2="402.3" y2="63.3"/>
          <line fill="none" stroke="#000000" stroke-miterlimit="10" x1="427.4" y1="92.9" x2="427.4" y2="63.3"/>
          <line fill="none" stroke="#000000" stroke-miterlimit="10" x1="452.6" y1="92.9" x2="452.6" y2="63.3"/>
        </g>
        <text style="fill: rgb(51, 51, 51); font-family: Arial, sans-serif; font-size: 10px; white-space: pre; transform-box: fill-box; transform-origin: 8.34377px 8.37841px;" x="345.481" y="59.339">up</text>
        <text style="fill: rgb(51, 51, 51); font-family: Arial, sans-serif; font-size: 10px; white-space: pre; transform-box: fill-box; transform-origin: 14.591px 8.37842px;" x="416.072" y="60.029">right</text>
        <text style="fill: rgb(51, 51, 51); font-family: Arial, sans-serif; font-size: 10px; white-space: pre; transform-origin: 370.544px 53.921px;" x="362.2" y="59.096">down</text>
        <text style="fill: rgb(51, 51, 51); font-family: Arial, sans-serif; font-size: 10px; white-space: pre; transform-origin: 402.406px 54.921px;" x="394.062" y="60.096">left</text>
        <text style="fill: rgb(51, 51, 51); font-family: Arial, sans-serif; font-size: 10px; white-space: pre; transform-origin: 364.949px 182.166px;" x="356.605" y="187.341">fire</text>
        <text style="fill: rgb(181, 179, 179); font-family: Arial, sans-serif; font-size: 10px; white-space: pre; transform-origin: 384.332px 182.166px;" x="375.988" y="187.341">+5V</text>
        <text style="fill: rgb(181, 179, 179); font-family: Arial, sans-serif; font-size: 10px; white-space: pre; transform-origin: 415.748px 182.166px;" x="407.404" y="187.341">0V</text>
        <text style="fill: rgb(181, 179, 179); font-family: Arial, sans-serif; font-size: 10px; white-space: pre; transform-origin: 438.459px 182.166px;" x="430.115" y="187.341">paddle A</text>
        <text style="fill: rgb(181, 179, 179); font-family: Arial, sans-serif; font-size: 10px; white-space: pre; transform-origin: 450.023px 53.921px;" x="441.679" y="59.096">paddle B</text>
        <path fill="#F2F2F2" stroke="#000000" stroke-miterlimit="10" d="M 190.3 77.3 L 159.7 77.3 L 105 77.3 L 74.4 77.3 C 61.2 77.3 51.5 89.8 54.9 102.6 L 65.7 143.7 C 68.1 152.7 76.2 158.9 85.5 158.9 L 105.1 158.9 L 159.8 158.9 L 179.4 158.9 C 188.7 158.9 196.8 152.6 199.2 143.7 L 210 102.6 C 213.2 89.9 203.6 77.3 190.3 77.3 Z"/>
        <path fill="#595959" stroke="#000000" stroke-miterlimit="10" d="M 202.4 88.2 C 199.5 84.4 195.1 82.3 190.4 82.3 L 159.8 82.3 L 105.1 82.3 L 74.5 82.3 C 69.7 82.3 65.4 84.5 62.5 88.2 C 59.6 91.9 58.6 96.8 59.8 101.4 L 70.6 142.5 C 72.4 149.3 78.5 154 85.5 154 L 105.1 154 L 159.8 154 L 179.4 154 C 186.4 154 192.5 149.3 194.3 142.5 L 205.1 101.4 C 206.2 96.8 205.3 92 202.4 88.2 Z M 72.4 102.8 C 72.4 97.3 76.8 92.9 82.3 92.9 C 87.8 92.9 92.2 97.3 92.2 102.8 C 92.2 108.3 87.8 112.7 82.3 112.7 C 76.9 112.8 72.4 108.3 72.4 102.8 Z M 94.8 143.6 C 89.3 143.6 84.9 139.2 84.9 133.7 C 84.9 128.2 89.3 123.8 94.8 123.8 C 100.3 123.8 104.7 128.2 104.7 133.7 C 104.7 139.2 100.3 143.6 94.8 143.6 Z M 97.5 102.8 C 97.5 97.3 101.9 92.9 107.4 92.9 C 112.9 92.9 117.3 97.3 117.3 102.8 C 117.3 108.3 112.9 112.7 107.4 112.7 C 101.9 112.8 97.5 108.3 97.5 102.8 Z M 119.9 143.6 C 114.4 143.6 110 139.2 110 133.7 C 110 128.2 114.4 123.8 119.9 123.8 C 125.4 123.8 129.8 128.2 129.8 133.7 C 129.8 139.2 125.3 143.6 119.9 143.6 Z M 122.6 102.8 C 122.6 97.3 127 92.9 132.5 92.9 C 138 92.9 142.4 97.3 142.4 102.8 C 142.4 108.3 138 112.7 132.5 112.7 C 127 112.7 122.6 108.3 122.6 102.8 Z M 144.9 143.6 C 139.4 143.6 135 139.2 135 133.7 C 135 128.2 139.4 123.8 144.9 123.8 C 150.4 123.8 154.8 128.2 154.8 133.7 C 154.8 139.2 150.4 143.6 144.9 143.6 Z M 157.5 112.8 C 152 112.8 147.6 108.4 147.6 102.9 C 147.6 97.4 152 93 157.5 93 C 163 93 167.4 97.4 167.4 102.9 C 167.5 108.3 163 112.8 157.5 112.8 Z M 170 143.6 C 164.5 143.6 160.1 139.2 160.1 133.7 C 160.1 128.2 164.5 123.8 170 123.8 C 175.5 123.8 179.9 128.2 179.9 133.7 C 179.9 139.2 175.5 143.6 170 143.6 Z M 182.6 112.8 C 177.1 112.8 172.7 108.4 172.7 102.9 C 172.7 97.4 177.1 93 182.6 93 C 188.1 93 192.5 97.4 192.5 102.9 C 192.5 108.3 188.1 112.8 182.6 112.8 Z"/>
        <g transform="matrix(1, 0, 0, 1, -270, 0)">
          <text transform="matrix(1 0 0 1 361.9548 137.5817)" font-family="'HelveticaNeue-Light'" font-size="10px" style="white-space: pre;">6</text>
          <text transform="matrix(1 0 0 1 387.0536 137.5817)" font-family="'HelveticaNeue-Light'" font-size="10px" style="white-space: pre;">7</text>
          <text transform="matrix(1 0 0 1 412.1527 137.5817)" font-family="'HelveticaNeue-Light'" font-size="10px" style="white-space: pre;">8</text>
          <text transform="matrix(1 0 0 1 437.2518 137.5817)" font-family="'HelveticaNeue-Light'" font-size="10px" style="white-space: pre;">9</text>
          <text transform="matrix(1 0 0 1 349.4054 106.349)" font-family="'HelveticaNeue-Light'" font-size="10px" style="white-space: pre;">1</text>
          <text transform="matrix(1 0 0 1 374.5042 106.349)" font-family="'HelveticaNeue-Light'" font-size="10px" style="white-space: pre;">2</text>
          <text transform="matrix(1 0 0 1 399.6034 106.349)" font-family="'HelveticaNeue-Light'" font-size="10px" style="white-space: pre;">3</text>
          <text transform="matrix(1 0 0 1 424.7024 106.349)" font-family="'HelveticaNeue-Light'" font-size="10px" style="white-space: pre;">4</text>
          <text transform="matrix(1 0 0 1 449.8015 106.349)" font-family="'HelveticaNeue-Light'" font-size="10px" style="white-space: pre;">5</text>
        </g>
        <g transform="matrix(1, 0, 0, 1, -270, 0)">
          <line fill="none" stroke="#000000" stroke-miterlimit="10" x1="364.8" y1="173.2" x2="364.8" y2="143.6"/>
          <line fill="none" stroke="#000000" stroke-miterlimit="10" x1="389.9" y1="173.2" x2="389.9" y2="143.6"/>
          <line fill="none" stroke="#000000" stroke-miterlimit="10" x1="414.9" y1="173.2" x2="414.9" y2="143.6"/>
          <line fill="none" stroke="#000000" stroke-miterlimit="10" x1="440" y1="173.2" x2="440" y2="143.6"/>
          <line fill="none" stroke="#000000" stroke-miterlimit="10" x1="352.2" y1="92.9" x2="352.2" y2="63.3"/>
          <line fill="none" stroke="#000000" stroke-miterlimit="10" x1="377.3" y1="92.9" x2="377.3" y2="63.3"/>
          <line fill="none" stroke="#000000" stroke-miterlimit="10" x1="402.3" y1="92.9" x2="402.3" y2="63.3"/>
          <line fill="none" stroke="#000000" stroke-miterlimit="10" x1="427.4" y1="92.9" x2="427.4" y2="63.3"/>
          <line fill="none" stroke="#000000" stroke-miterlimit="10" x1="452.6" y1="92.9" x2="452.6" y2="63.3"/>
        </g>
        <text style="fill: rgb(51, 51, 51); font-family: Arial, sans-serif; font-size: 10px; white-space: pre; transform-origin: 81.094px 58.6px;" x="72.75" y="59.339">PB3</text>
        <text style="fill: rgb(51, 51, 51); font-family: Arial, sans-serif; font-size: 10px; white-space: pre; transform-origin: 162.541px 58.6px;" x="147.95" y="59.339">PB4</text>
        <text style="fill: rgb(51, 51, 51); font-family: Arial, sans-serif; font-size: 10px; white-space: pre; transform-origin: 106.194px 54.164px;" x="97.85" y="59.339">PB2</text>
        <text style="fill: rgb(51, 51, 51); font-family: Arial, sans-serif; font-size: 10px; white-space: pre; transform-origin: 131.194px 54.164px;" x="122.85" y="59.339">PB1</text>
        <text style="fill: rgb(51, 51, 51); font-family: Arial, sans-serif; font-size: 10px; white-space: pre; transform-origin: 93.694px 178.166px;" x="85.35" y="183.341">PB0</text>
        <text style="fill: rgb(181, 179, 179); font-family: Arial, sans-serif; font-size: 10px; white-space: pre; transform-origin: 119.209px 178.166px;" x="110.865" y="183.341">+5V</text>
        <text style="fill: rgb(181, 179, 179); font-family: Arial, sans-serif; font-size: 10px; white-space: pre; transform-origin: 147.128px 178.166px;" x="138.784" y="183.341">0V</text>
        <text style="fill: rgb(181, 179, 179); font-family: Arial, sans-serif; font-size: 10px; white-space: pre; transform-origin: 168.618px 178.166px;" x="160.274" y="183.341">CB2</text>
        <text style="fill: rgb(181, 179, 179); font-family: Arial, sans-serif; font-size: 10px; white-space: pre; transform-origin: 181.218px 54.164px;" x="172.874" y="59.339">CB1</text>
      </g>
      <text transform="matrix(1, 0, 0, 1, 399.212433, 14.785452)" style="white-space: pre; text-anchor: middle;">Atari Joystick / Paddle<tspan x="0" dy="1em">​</tspan>Pinout</text>
      <text transform="matrix(1, 0, 0, 1, 132.905716, 14.785452)" style="white-space: pre; text-anchor: middle;">Master Compact<tspan x="0" dy="1em">​</tspan>Joystick / Mouse Port</text>
    </g>
  </g>
</svg>